<svg width="76" height="76" viewBox="0 0 76 76" fill="none" xmlns="http://www.w3.org/2000/svg">
<path d="M38 76C58.9868 76 76 58.9868 76 38C76 17.0132 58.9868 0 38 0C17.0132 0 0 17.0132 0 38C0 58.9868 17.0132 76 38 76Z" fill="url(#paint0_linear)"/>
<path d="M43.582 30.7594C42.4846 29.8423 41.9566 29.3618 41.9566 28.3805C41.9566 27.6631 42.2206 27.3257 42.8183 26.6301C43.5679 25.7555 44.5943 24.5591 44.5943 22.1803C44.5943 18.5444 41.6358 15.5859 38 15.5859C34.3641 15.5859 31.4056 18.5444 31.4056 22.1803C31.4056 24.5591 32.4322 25.7555 33.1817 26.6301C33.7793 27.3257 34.0434 27.6631 34.0434 28.45C34.0434 29.3618 33.5154 29.8423 32.418 30.7594C31.4862 31.5372 30.3862 32.512 29.6324 34.0501H46.3676C45.6138 32.512 44.5137 31.5372 43.582 30.7594V30.7594ZM49.8698 36.6878H26.1302C24.6734 36.6878 23.4924 37.8688 23.4924 39.3257C23.4924 40.7823 24.6734 41.9634 26.1302 41.9634H34.0434C34.7718 41.9634 35.3622 42.5538 35.3622 43.2823V47.2389C35.3622 48.6955 36.5431 49.8766 38 49.8766C39.4569 49.8766 40.6377 48.6955 40.6377 47.2389V43.2823C40.6377 42.5538 41.2282 41.9634 41.9566 41.9634H49.8698C51.3267 41.9634 52.5075 40.7823 52.5075 39.3257C52.5075 37.8688 51.3267 36.6878 49.8698 36.6878V36.6878ZM46.2933 44.6012H43.2754V45.7997C45.6947 47.0108 47.2321 49.0046 47.2321 51.1955C47.2321 54.8315 43.0899 57.7898 38 57.7898C32.9101 57.7898 28.7679 54.8313 28.7679 51.1955C28.7679 49.0046 30.3053 47.0108 32.7245 45.7997V44.6012H29.7066C27.4866 46.2919 26.1302 48.6341 26.1302 51.1955C26.1302 56.2856 31.4546 60.4276 38 60.4276C44.5453 60.4276 49.8698 56.2856 49.8698 51.1955C49.8698 48.6341 48.5132 46.2919 46.2933 44.6012V44.6012Z" fill="url(#paint1_linear)"/>
<defs>
<linearGradient id="paint0_linear" x1="38" y1="76" x2="38" y2="0" gradientUnits="userSpaceOnUse">
<stop stop-color="#ADDCFF"/>
<stop offset="0.5028" stop-color="#EAF6FF"/>
<stop offset="1" stop-color="#EAF6FF"/>
</linearGradient>
<linearGradient id="paint1_linear" x1="38" y1="15.5859" x2="38" y2="60.4276" gradientUnits="userSpaceOnUse">
<stop stop-color="#5558FF"/>
<stop offset="1" stop-color="#00C0FF"/>
</linearGradient>
</defs>
</svg>
