<svg width="76" height="76" viewBox="0 0 76 76" fill="none" xmlns="http://www.w3.org/2000/svg">
<circle cx="38" cy="38" r="38" fill="#E4E4E4"/>
<path d="M38 76C58.9868 76 76 58.9868 76 38C76 17.0132 58.9868 0 38 0C17.0132 0 0 17.0132 0 38C0 58.9868 17.0132 76 38 76Z" fill="url(#paint0_linear)"/>
<path d="M35.363 36.6816C34.6342 36.6816 34.0446 37.2713 34.0446 38V53.8217C34.0446 54.5505 34.6343 55.1401 35.363 55.1401C36.0917 55.1401 36.6814 54.5503 36.6814 53.8217V38C36.6816 37.2712 36.0918 36.6816 35.363 36.6816V36.6816ZM52.5032 28.7706H23.4968V34.0444H52.5032V28.7706ZM30.0892 36.6816C29.3603 36.6816 28.7708 37.2713 28.7708 38V55.1402C28.7708 56.5939 27.5874 57.7772 26.1338 57.7772C24.6801 57.7772 23.4968 56.5939 23.4968 55.1402C23.4968 54.4359 23.7711 53.7742 24.2692 53.2759C24.7843 52.7608 24.7843 51.9264 24.2692 51.4115C23.7542 50.8965 22.9198 50.8964 22.4049 51.4115C21.4083 52.4081 20.8598 53.7317 20.8598 55.1402C20.8598 58.0489 23.225 60.4141 26.1336 60.4141C29.0422 60.4141 31.4074 58.0489 31.4074 55.1402V38C31.4076 37.2712 30.8179 36.6816 30.0892 36.6816V36.6816ZM59.0956 15.5859H16.9044C16.1755 15.5859 15.5859 16.1757 15.5859 16.9044V32.726C15.5859 33.4548 16.1757 34.0444 16.9044 34.0444H20.8598V27.452C20.8598 26.7232 21.4495 26.1336 22.1782 26.1336H53.8217C54.5505 26.1336 55.1401 26.7234 55.1401 27.452V34.0444H59.0955C59.8243 34.0444 60.4139 33.4547 60.4139 32.726V16.9044C60.4141 16.1757 59.8243 15.5859 59.0956 15.5859ZM24.8152 23.4968H22.1782C21.4494 23.4968 20.8598 22.907 20.8598 22.1783C20.8598 21.4495 21.4495 20.8599 22.1782 20.8599H24.8152C25.544 20.8599 26.1336 21.4497 26.1336 22.1783C26.1338 22.907 25.544 23.4968 24.8152 23.4968ZM32.7262 23.4968H30.0892C29.3603 23.4968 28.7708 22.907 28.7708 22.1783C28.7708 21.4495 29.3605 20.8599 30.0892 20.8599H32.7262C33.455 20.8599 34.0446 21.4497 34.0446 22.1783C34.0446 22.907 33.4548 23.4968 32.7262 23.4968ZM51.7306 51.4113C51.2155 51.9264 51.2155 52.7608 51.7306 53.2757C52.2289 53.774 52.5031 54.4357 52.5031 55.1401C52.5031 56.5937 51.3199 57.7771 49.8661 57.7771C48.4123 57.7771 47.2291 56.5937 47.2291 55.1401V38C47.2291 37.2712 46.6394 36.6816 45.9107 36.6816C45.1819 36.6816 44.5923 37.2713 44.5923 38V55.1402C44.5923 58.0489 46.9575 60.4141 49.8661 60.4141C52.7747 60.4141 55.1399 58.0489 55.1399 55.1402C55.1399 53.7316 54.5915 52.4079 53.5948 51.4115C53.0801 50.8963 52.2457 50.8963 51.7306 51.4113ZM40.637 36.6816C39.9082 36.6816 39.3186 37.2713 39.3186 38V53.8217C39.3186 54.5505 39.9083 55.1401 40.637 55.1401C41.3657 55.1401 41.9554 54.5503 41.9554 53.8217V38C41.9554 37.2712 41.3657 36.6816 40.637 36.6816V36.6816Z" fill="url(#paint1_linear)"/>
<defs>
<linearGradient id="paint0_linear" x1="38" y1="76" x2="38" y2="0" gradientUnits="userSpaceOnUse">
<stop stop-color="#C3FFE8"/>
<stop offset="0.9973" stop-color="#F0FFF4"/>
</linearGradient>
<linearGradient id="paint1_linear" x1="38" y1="60.4141" x2="38" y2="36.6816" gradientUnits="userSpaceOnUse">
<stop stop-color="#9CFFAC"/>
<stop offset="1" stop-color="#00B59C"/>
</linearGradient>
</defs>
</svg>
