<svg width="76" height="76" viewBox="0 0 76 76" fill="none" xmlns="http://www.w3.org/2000/svg">
<path d="M38 76C58.9868 76 76 58.9868 76 38C76 17.0132 58.9868 0 38 0C17.0132 0 0 17.0132 0 38C0 58.9868 17.0132 76 38 76Z" fill="url(#paint0_linear)"/>
<path d="M41.9563 15.5859H36.6825C34.5013 15.5859 32.727 17.3602 32.727 19.5414V22.1783C32.727 25.8131 35.6847 28.7708 39.3195 28.7708C42.9542 28.7708 45.9119 25.8133 45.9119 22.1783V19.5414C45.9117 17.3602 44.1374 15.5859 41.9563 15.5859V15.5859ZM47.2301 53.8217C47.2301 57.4564 50.1877 60.4141 53.8225 60.4141C57.4573 60.4141 60.4149 57.4564 60.4149 53.8217V44.5923H47.2301V53.8217ZM59.0964 36.6816H55.141V34.0446H56.4594C57.1882 34.0446 57.7778 33.4548 57.7778 32.7262C57.7778 31.9973 57.1881 31.4077 56.4594 31.4077H55.141V28.7708H56.4594C57.1882 28.7708 57.7778 28.181 57.7778 27.4523C57.7778 26.7235 57.1881 26.1338 56.4594 26.1338H55.141V23.4968H56.4594C57.1882 23.4968 57.7778 22.907 57.7778 22.1783C57.7778 21.4497 57.1881 20.8599 56.4594 20.8599H55.141V19.5415C55.141 18.8127 54.5512 18.2231 53.8225 18.2231C53.0937 18.2231 52.5041 18.8128 52.5041 19.5415V20.8599H51.1857C50.4569 20.8599 49.8673 21.4497 49.8673 22.1783C49.8673 22.907 50.457 23.4968 51.1857 23.4968H52.5041V26.1338H51.1857C50.4569 26.1338 49.8673 26.7235 49.8673 27.4523C49.8673 28.181 50.457 28.7708 51.1857 28.7708H52.5041V31.4077H51.1857C50.4569 31.4077 49.8673 31.9975 49.8673 32.7262C49.8673 33.4548 50.457 34.0446 51.1857 34.0446H52.5041V36.6816H48.5487C47.8199 36.6816 47.2303 37.2713 47.2303 38V41.9554H60.4151V38C60.4149 37.2712 59.8252 36.6816 59.0964 36.6816V36.6816ZM35.3639 30.4819V34.0446H43.2747V30.4819C42.0712 31.0582 40.7401 31.4077 39.3193 31.4077C37.8985 31.4077 36.5674 31.058 35.3639 30.4819ZM35.3639 56.4586C35.3639 58.6398 37.1382 60.4141 39.3193 60.4141C41.5004 60.4141 43.2747 58.6398 43.2747 56.4586V36.6816H35.3639V56.4586ZM28.7715 16.9096C28.7715 16.1807 28.1817 15.5911 27.4531 15.5911C22.3646 15.5911 18.2238 19.7319 18.2238 24.8204V34.0446H28.7716V16.9096H28.7715ZM30.0899 36.6816H16.9051C16.1763 36.6816 15.5867 37.2713 15.5867 38V41.9554H31.4083V38C31.4085 37.2712 30.8187 36.6816 30.0899 36.6816V36.6816ZM15.5868 59.0956C15.5868 59.8245 16.1766 60.4141 16.9052 60.4141H30.0901C30.8189 60.4141 31.4085 59.8243 31.4085 59.0956V44.5924H15.5868V59.0956Z" fill="url(#paint1_linear)"/>
<defs>
<linearGradient id="paint0_linear" x1="38" y1="76" x2="38" y2="0" gradientUnits="userSpaceOnUse">
<stop stop-color="#FFC8D1"/>
<stop offset="1" stop-color="#FFF6F7"/>
</linearGradient>
<linearGradient id="paint1_linear" x1="38.0009" y1="15.5859" x2="38.0009" y2="60.4141" gradientUnits="userSpaceOnUse">
<stop stop-color="#FD3A84"/>
<stop offset="1" stop-color="#FFA68D"/>
</linearGradient>
</defs>
</svg>
