<svg width="76" height="76" viewBox="0 0 76 76" fill="none" xmlns="http://www.w3.org/2000/svg">
<path d="M38 76C58.9868 76 76 58.9868 76 38C76 17.0132 58.9868 0 38 0C17.0132 0 0 17.0132 0 38C0 58.9868 17.0132 76 38 76Z" fill="url(#paint0_linear)"/>
<path d="M50.1368 33.1161L47.6285 39.2402C47.3428 39.9315 46.5559 40.233 45.9085 39.9601C45.2338 39.684 44.9118 38.9113 45.1875 38.2366L47.6976 32.1082C46.8056 31.7312 45.8569 31.3187 44.8289 30.8523L42.0329 36.8548C41.7323 37.4987 40.9634 37.8072 40.2793 37.4934C39.62 37.1851 39.3342 36.3981 39.6432 35.7375L42.4387 29.7356C41.5454 29.3069 40.6138 28.8479 39.6278 28.3449L36.5683 34.2113C36.2284 34.8589 35.4346 35.1074 34.7889 34.7712C34.1426 34.4332 33.8927 33.6346 34.23 32.9883L37.2909 27.1189C36.0478 26.4551 34.7617 25.7535 33.3802 24.9638C32.9708 24.7303 32.4686 24.7303 32.0643 24.969C31.6574 25.205 31.4076 25.6398 31.4076 26.1108C31.4076 29.7527 28.4513 32.7161 24.8152 32.7161C21.1791 32.7161 18.2228 29.7527 18.2228 26.1108C18.2228 25.3806 17.633 24.7897 16.9044 24.7897C16.1757 24.7897 15.5859 25.3806 15.5859 26.1108V43.2847H60.3899C60.121 36.3926 57.4171 36.04 50.1368 33.1161V33.1161ZM15.5859 45.9267V49.89C15.5859 50.6202 16.1757 51.2111 16.9044 51.2111H59.0955C59.8243 51.2111 60.4139 50.6203 60.4139 49.89V45.9267H15.5859Z" fill="url(#paint1_linear)"/>
<defs>
<linearGradient id="paint0_linear" x1="38" y1="76" x2="38" y2="0" gradientUnits="userSpaceOnUse">
<stop stop-color="#FFBEF9"/>
<stop offset="1" stop-color="#FFF1FF"/>
</linearGradient>
<linearGradient id="paint1_linear" x1="38" y1="51.2111" x2="38" y2="24.7892" gradientUnits="userSpaceOnUse">
<stop stop-color="#FF81FF"/>
<stop offset="1" stop-color="#A93AFF"/>
</linearGradient>
</defs>
</svg>
