<svg width="76" height="76" viewBox="0 0 76 76" fill="none" xmlns="http://www.w3.org/2000/svg">
<path d="M38 76C58.9868 76 76 58.9868 76 38C76 17.0132 58.9868 0 38 0C17.0132 0 0 17.0132 0 38C0 58.9868 17.0132 76 38 76Z" fill="url(#paint0_linear)"/>
<path d="M48.4715 15.5859H27.5285C25.3631 15.5859 23.6016 17.3602 23.6016 19.5414V56.4586C23.6016 58.6398 25.3631 60.4141 27.5285 60.4141H48.4717C50.6369 60.4141 52.3984 58.6398 52.3984 56.4586V19.5414C52.3984 17.3602 50.6369 15.5859 48.4715 15.5859V15.5859ZM39.3089 55.1402H36.6911C35.9676 55.1402 35.3822 54.5505 35.3822 53.8218C35.3822 53.0931 35.9676 52.5034 36.6911 52.5034H39.3089C40.0324 52.5034 40.6178 53.0931 40.6178 53.8218C40.6178 54.5505 40.0324 55.1402 39.3089 55.1402ZM47.1626 48.5478C47.1626 49.2766 46.5772 49.8664 45.8537 49.8664H30.1463C29.4228 49.8664 28.8374 49.2766 28.8374 48.5478V22.1783C28.8374 21.4497 29.4228 20.8599 30.1463 20.8599H45.8537C46.5772 20.8599 47.1626 21.4497 47.1626 22.1783V48.5478Z" fill="url(#paint1_linear)"/>
<defs>
<linearGradient id="paint0_linear" x1="38" y1="76" x2="38" y2="0" gradientUnits="userSpaceOnUse">
<stop stop-color="#ADDCFF"/>
<stop offset="0.5028" stop-color="#EAF6FF"/>
<stop offset="1" stop-color="#EAF6FF"/>
</linearGradient>
<linearGradient id="paint1_linear" x1="38" y1="60.4141" x2="38" y2="15.5859" gradientUnits="userSpaceOnUse">
<stop stop-color="#00C0FF"/>
<stop offset="1" stop-color="#5558FF"/>
</linearGradient>
</defs>
</svg>
