<svg width="76" height="76" viewBox="0 0 76 76" fill="none" xmlns="http://www.w3.org/2000/svg">
<path d="M38 76C58.9868 76 76 58.9868 76 38C76 17.0132 58.9868 0 38 0C17.0132 0 0 17.0132 0 38C0 58.9868 17.0132 76 38 76Z" fill="url(#paint0_linear)"/>
<path d="M53.8216 39.3184C52.8568 39.3184 51.9635 39.5976 51.1846 40.0519V38C51.1846 37.2712 50.5949 36.6816 49.8662 36.6816H26.1337C25.4049 36.6816 24.8153 37.2713 24.8153 38V49.8662H28.7707C30.9518 49.8662 32.7261 51.6405 32.7261 53.8217V60.4141H47.2293C49.4105 60.4141 51.1848 58.6398 51.1848 56.4586V55.0069C55.6456 54.3602 59.0956 50.5479 59.0956 45.9108V44.5924C59.0956 41.6838 56.7302 39.3184 53.8216 39.3184V39.3184ZM56.4586 45.9108C56.4586 49.0942 54.19 51.7572 51.1846 52.3698V44.5924C51.1846 43.1388 52.3679 41.9554 53.8216 41.9554C55.2752 41.9554 56.4586 43.1388 56.4586 44.5924V45.9108ZM37.9999 16.9044C37.9999 16.1755 37.4102 15.5859 36.6815 15.5859H28.7707C28.042 15.5859 27.4523 16.1757 27.4523 16.9044V18.2228H31.4077C32.1364 18.2228 32.7261 18.8125 32.7261 19.5412C32.7261 20.27 32.1364 20.8596 31.4077 20.8596H27.4523V23.4966H31.4077C32.1364 23.4966 32.7261 24.0864 32.7261 24.815C32.7261 25.5439 32.1364 26.1335 31.4077 26.1335H27.4523V28.7705H31.4077C32.1364 28.7705 32.7261 29.3602 32.7261 30.0889C32.7261 30.8177 32.1364 31.4073 31.4077 31.4073H27.4523V34.0443H37.9999V16.9044ZM16.9043 53.8217V59.0956C16.9043 59.8245 17.494 60.4141 18.2227 60.4141H24.8151V52.5032H18.2227C17.494 52.5032 16.9043 53.093 16.9043 53.8217ZM28.7705 52.5032H27.4521V60.4141H28.7705C29.4994 60.4141 30.089 59.8243 30.089 59.0956V53.8217C30.0891 53.093 29.4994 52.5032 28.7705 52.5032ZM48.5478 28.7706H40.6369V34.0444H48.5478V28.7706ZM45.8708 16.5851C45.5772 15.4108 43.6073 15.4108 43.3137 16.5851L40.9265 26.1338H48.258L45.8708 16.5851Z" fill="url(#paint1_linear)"/>
<defs>
<linearGradient id="paint0_linear" x1="38" y1="76" x2="38" y2="0" gradientUnits="userSpaceOnUse">
<stop stop-color="#FFE59A"/>
<stop offset="1" stop-color="#FFFFD5"/>
</linearGradient>
<linearGradient id="paint1_linear" x1="37.9999" y1="15.5859" x2="37.9999" y2="60.4141" gradientUnits="userSpaceOnUse">
<stop stop-color="#FD5900"/>
<stop offset="1" stop-color="#FFDE00"/>
</linearGradient>
</defs>
</svg>
