<svg width="24" height="24" viewBox="0 0 24 24" fill="none" xmlns="http://www.w3.org/2000/svg">
<path d="M24 14.8051V10.0133H21.0326L14.0085 3.52299C14.0873 3.30066 14.1307 3.06165 14.1307 2.81257C14.1307 1.6377 13.1749 0.681885 12 0.681885C10.8251 0.681885 9.86932 1.6377 9.86932 2.81257C9.86932 3.06162 9.91267 3.30066 9.99155 3.52299L2.96739 10.0133H0V14.8051H0.838911L3.75375 23.318H20.2462L23.161 14.8051H24V14.8051ZM15.903 17.3535H12.8412V14.8283H16.1524L15.903 17.3535ZM11.1588 21.6355H8.5198L8.2631 19.036H11.1588V21.6355ZM8.09698 17.3535L7.84763 14.8283H11.1588V17.3535H8.09698ZM12.4482 2.81257C12.4482 2.94249 12.3923 3.05932 12.3037 3.14124C12.2238 3.21517 12.1172 3.26077 12 3.26077C11.8828 3.26077 11.7763 3.21517 11.6963 3.14124C11.6077 3.0593 11.5518 2.94249 11.5518 2.81257C11.5518 2.68264 11.6077 2.56581 11.6963 2.48389C11.7762 2.40996 11.8828 2.36436 12 2.36436C12.1172 2.36436 12.2237 2.40996 12.3037 2.48389C12.3923 2.56584 12.4482 2.68264 12.4482 2.81257ZM11.1336 4.75845C11.3985 4.87686 11.6916 4.94327 12 4.94327C12.3084 4.94327 12.6015 4.87686 12.8664 4.75845L18.5535 10.0134H5.44657L11.1336 4.75845ZM1.68247 11.6958H22.3175V13.1226H1.68247V11.6958ZM6.15699 14.8283L6.40634 17.3535H3.4899L2.62525 14.8283H6.15699ZM4.95605 21.6355L4.06597 19.036H6.57249L6.82916 21.6355H4.95605ZM12.8412 19.036H15.7369L15.4802 21.6355H12.8412V19.036ZM19.044 21.6355H17.1708L17.4275 19.036H19.934L19.044 21.6355ZM20.5101 17.3535H17.5937L17.843 14.8283H21.3748L20.5101 17.3535Z" fill="#FF7158"/>
</svg>
