<svg width="28" height="28" viewBox="0 0 28 28" fill="none" xmlns="http://www.w3.org/2000/svg">
<path d="M14 0C21.7199 0 28 6.28009 28 14C28 21.7199 21.7199 28 14 28C6.28009 28 0 21.7199 0 14C0 6.28009 6.28009 0 14 0Z" fill="#F44336"/>
<path d="M8.84446 17.5059C8.38837 17.9622 8.38837 18.6994 8.84446 19.1557C9.07197 19.3832 9.37061 19.4975 9.66947 19.4975C9.96812 19.4975 10.2668 19.3832 10.4943 19.1557L14 15.6497L17.5058 19.1557C17.7333 19.3832 18.032 19.4975 18.3306 19.4975C18.6295 19.4975 18.9281 19.3832 19.1556 19.1557C19.6117 18.6994 19.6117 17.9622 19.1556 17.5059L15.6496 14.0001L19.1556 10.4943C19.6117 10.038 19.6117 9.3008 19.1556 8.84451C18.6993 8.38842 17.9621 8.38842 17.5058 8.84451L14 12.3505L10.4943 8.84451C10.038 8.38842 9.30076 8.38842 8.84446 8.84451C8.38837 9.3008 8.38837 10.038 8.84446 10.4943L12.3504 14.0001L8.84446 17.5059Z" fill="#FAFAFA"/>
</svg>
