<svg width="24" height="24" viewBox="0 0 24 24" fill="none" xmlns="http://www.w3.org/2000/svg">
<g clip-path="url(#clip0)">
<path d="M23.9999 14.8051V10.0133H21.0325L14.0083 3.52299C14.0872 3.30066 14.1306 3.06165 14.1306 2.81257C14.1306 1.6377 13.1747 0.681885 11.9999 0.681885C10.825 0.681885 9.8692 1.6377 9.8692 2.81257C9.8692 3.06162 9.91255 3.30066 9.99142 3.52299L2.96727 10.0133H-0.00012207V14.8051H0.838789L3.75363 23.318H20.2461L23.1609 14.8051H23.9999V14.8051ZM15.9029 17.3535H12.8411V14.8283H16.1523L15.9029 17.3535ZM11.1586 21.6355H8.51968L8.26298 19.036H11.1586V21.6355ZM8.09686 17.3535L7.84751 14.8283H11.1586V17.3535H8.09686ZM12.4481 2.81257C12.4481 2.94249 12.3922 3.05932 12.3036 3.14124C12.2236 3.21517 12.1171 3.26077 11.9999 3.26077C11.8826 3.26077 11.7761 3.21517 11.6962 3.14124C11.6076 3.0593 11.5517 2.94249 11.5517 2.81257C11.5517 2.68264 11.6076 2.56581 11.6962 2.48389C11.7761 2.40996 11.8826 2.36436 11.9999 2.36436C12.1171 2.36436 12.2236 2.40996 12.3036 2.48389C12.3922 2.56584 12.4481 2.68264 12.4481 2.81257ZM11.1335 4.75845C11.3984 4.87686 11.6914 4.94327 11.9999 4.94327C12.3083 4.94327 12.6013 4.87686 12.8662 4.75845L18.5533 10.0134H5.44644L11.1335 4.75845ZM1.68235 11.6958H22.3174V13.1226H1.68235V11.6958ZM6.15687 14.8283L6.40622 17.3535H3.48977L2.62513 14.8283H6.15687ZM4.95593 21.6355L4.06585 19.036H6.57236L6.82904 21.6355H4.95593ZM12.8411 19.036H15.7368L15.4801 21.6355H12.8411V19.036ZM19.0438 21.6355H17.1707L17.4274 19.036H19.9339L19.0438 21.6355ZM20.51 17.3535H17.5935L17.8429 14.8283H21.3746L20.51 17.3535Z" fill="#0C0D36"/>
</g>
<defs>
<clipPath id="clip0">
<rect width="24" height="24" fill="white" transform="translate(-0.00012207)"/>
</clipPath>
</defs>
</svg>
